<?xml version="1.0"?>
<svg xmlns="http://www.w3.org/2000/svg" xmlns:xlink="http://www.w3.org/1999/xlink" xmlns:svgjs="http://svgjs.com/svgjs" version="1.1" width="512" height="512" x="0" y="0" viewBox="0 0 60 60" style="enable-background:new 0 0 512 512" xml:space="preserve"><g><g xmlns="http://www.w3.org/2000/svg" id="Page-1" fill="none" fill-rule="evenodd"><g id="043---Best-Beans" fill="rgb(0,0,0)" fill-rule="nonzero" transform="translate(0 -1)"><path id="Shape" d="m3.191 26.356c-1.08373586.0006411-2.09292516.5517912-2.67924974 1.4632227-.58632459.9114314-.66947428 2.0583035-.22075026 3.0447773l3.919 8.622c.52841187 1.1669356 1.2639684 2.2284274 2.171 3.133l6.164 6.164c-.3483345.3677232-.5432551.8544881-.545 1.361v8c0 1.1045695.8954305 2 2 2h11c1.1045695 0 2-.8954305 2-2v-8c0-1.1045695-.8954305-2-2-2v-1.862c.0304617-2.3678298-.7418128-4.676194-2.191-6.549-.850089-1.1189799-2.0090488-1.9647355-3.334-2.433-2.1058796-.8854423-4.042757-2.128427-5.725-3.674-1.5598018-1.2876324-3.77768539-1.4053243-5.465-.29l-2.163-5.047c-.50179827-1.1731047-1.65507849-1.9336952-2.931-1.933zm21.809 31.788h-11v-8h11zm-18.48-23.844c.59521432 1.3897751 1.45133033 2.6525632 2.522 3.72l4.568 4.568c.2510745.2599566.6228779.3642126.9725073.2726972.3496295-.0915155.6226744-.3645604.7141899-.7141899.0915154-.3496294-.0127406-.7214328-.2726972-.9725073l-4.568-4.574c-.4598042-.457803-.8728448-.9602855-1.233-1.5.9601048-.7392667 2.3035961-.7172831 3.239.053 1.8688835 1.7164072 4.0295301 3.0849296 6.38 4.041.9579925.348329 1.7937239.9682646 2.405 1.784 1.1663266 1.5194181 1.7841684 3.3888035 1.753 5.304v1.862h-8.269l-6.939-6.944c-.73668089-.7353814-1.33429765-1.597928-1.764-2.546l-3.919-8.618c-.16679314-.3678567-.13543483-.7952315.08326534-1.1348029s.59483067-.5448965.99873466-.5451971c.4753271-.0002905.90499268.2830055 1.092.72z" fill="#29190e" data-original="#000000" style=""/><path id="Shape" d="m23 53.144h-1c-.5522847 0-1 .4477153-1 1s.4477153 1 1 1h1c.5522847 0 1-.4477153 1-1s-.4477153-1-1-1z" fill="#29190e" data-original="#000000" style=""/><path id="Shape" d="m35 60.144h11c1.1045695 0 2-.8954305 2-2v-8c-.0012041-.5062376-.195395-.9929664-.543-1.361l6.164-6.163c.906808-.9051405 1.6423266-1.9669162 2.171-3.134l3.919-8.622c.4818642-1.0454888.3626536-2.2695544-.3118809-3.2024226-.6745345-.9328683-1.7996057-1.4296203-2.9434316-1.2996119-1.1438259.1300085-2.1287161.866581-2.5766875 1.9270345l-2.158 5.035c-1.6917867-1.1118527-3.9109271-.990167-5.471.3-1.6820889 1.5462849-3.6189755 2.7899522-5.725 3.676-1.3242088.467618-2.4827589 1.3122855-3.333 2.43-1.4502591 1.8734456-2.2229353 4.1830144-2.192 6.552v1.862c-1.1045695 0-2 .8954305-2 2v8c0 1.1045695.8954305 2 2 2zm2-13.862c-.0299758-1.9139504.5881741-3.7817922 1.754-5.3.6099514-.8147132 1.4438767-1.4342502 2.4-1.783 2.3504699-.9560704 4.5111165-2.3245928 6.38-4.041.9346192-.7758438 2.2818826-.8011698 3.245-.061-.3608003.5407194-.7745046 1.0441992-1.235 1.503l-4.568 4.569c-.3789722.3923789-.3735524 1.0160848.0121814 1.4018186s1.0094397.3911536 1.4018186.0121814l4.568-4.568c1.070142-1.0659579 1.9262291-2.3270061 2.522-3.715l2.237-5.219c.1870073-.4369945.6166729-.7202905 1.092-.72.403904.0003006.7800345.2056257.9987347.5451971.2187001.3395714.2500584.7669462.0832653 1.1348029l-3.919 8.622c-.4299366.9484833-1.0278964 1.8113749-1.765 2.547l-6.938 6.939h-8.269zm-2 3.862h11v8h-11z" fill="#29190e" data-original="#000000" style=""/><path id="Shape" d="m38 53.144h-1c-.5522847 0-1 .4477153-1 1s.4477153 1 1 1h1c.5522847 0 1-.4477153 1-1s-.4477153-1-1-1z" fill="#29190e" data-original="#000000" style=""/><path id="Shape" d="m15.173 9.394c-1.4525885 1.4955115-2.2366605 3.5161298-2.173 5.6.1279344 3.400991 1.5875384 6.615424 4.064 8.95 2.3580872 2.4685161 5.5882333 3.9166983 9 4.035 2.0755417.0573078 4.0878596-.7175192 5.589-2.152 1.4522232-1.4956761 2.2359266-3.5162743 2.172-5.6-.128095-3.4002499-1.5868708-6.6140817-4.062-8.949-4.53-4.53-11.073-5.378-14.59-1.884zm3.3 13.134c-2.0866162-1.970233-3.3309785-4.6707106-3.473-7.537-.0087693-.7867861.1247085-1.5686819.394-2.308.873308.5173915 1.8524797.8302204 2.864.915 2.2458937.1173053 4.0418355 1.9093654 4.164 4.155.2496496 3.1257854 2.7347511 5.6062228 5.861 5.85.737582.0493442 1.454144.266536 2.095.635-.05.054-.087.12-.139.172-2.734 2.716-8.011 1.871-11.762-1.882zm13.346-2.3c.0090896.786725-.1240491 1.568619-.393 2.308-.8735208-.5177261-1.8530953-.8305745-2.865-.915-2.2440012-.1186911-4.0379906-1.9092314-4.161-4.153-.249583-3.1254373-2.734141-5.6057555-5.86-5.85-.7373389-.0496962-1.4535706-.2672336-2.094-.636.05-.054.086-.119.138-.171 1.1264093-1.07020135 2.6351141-1.64371091 4.188-1.592 2.8801616.13224932 5.596416 1.3777968 7.576 3.474 2.0866919 1.9699682 3.3316852 4.6699018 3.475 7.536z" fill="#29190e" data-original="#000000" style=""/><path id="Shape" d="m34.045 26.8c-.0130789.4724717.3064262.8895803.766 1 .5896298.14025 1.1939293.2094087 1.8.206 5.74-.011 10.4-6.067 10.391-13.5.01-6.589-3.608-12.182-8.6-13.3-.5912234-.13495999-1.1955716-.20404752-1.802-.206-3.36.011-6.519 2.12-8.45 5.644-.1808712.31408344-.1776383.70144856.0084499 1.01246941.1860883.31102085.5258994.49700638.8881758.48611673.3622765-.01088965.6903031-.21694968.8573743-.53858614 1.6-2.917 4.042-4.6 6.7-4.6.16 0 .322.007.486.021-.2021515.94816886-.645427 1.82817572-1.287 2.555-1.1548196 1.31243412-1.7828505 3.00594464-1.763 4.754-.0191841 1.7528009.6113539 3.4506224 1.77 4.766.8909333.9736435 1.378829 2.2493211 1.365 3.569.0185816 1.3147155-.4686521 2.5863203-1.361 3.552-1.1135158 1.2685621-1.7404241 2.8912943-1.769 4.579zm3.367-3.376c2.3526874-2.7387833 2.3526874-6.7852167 0-9.524-.8915799-.972916-1.3799041-2.2484217-1.366-3.568-.0187215-1.3149257.4689336-2.58669568 1.362-3.552.8043684-.94307216 1.3644811-2.0694789 1.631-3.28 3.472 1.454 5.969 5.941 5.961 11 .008 6.332-3.757 11.49-8.393 11.5-.165 0-.325-.006-.482-.019.2012896-.9496618.6446282-1.831172 1.287-2.559z" fill="#29190e" data-original="#000000" style=""/><path id="Shape" d="m5 14c0 .5522847.44771525 1 1 1h3c.55228475 0 1-.4477153 1-1s-.44771525-1-1-1h-3c-.55228475 0-1 .4477153-1 1z" fill="#29190e" data-original="#000000" style=""/><path id="Shape" d="m50 14c0 .5522847.4477153 1 1 1h3c.5522847 0 1-.4477153 1-1s-.4477153-1-1-1h-3c-.5522847 0-1 .4477153-1 1z" fill="#29190e" data-original="#000000" style=""/><path id="Shape" d="m11.313 23.634-2.6 1.5c-.31195078.1773616-.50495322.5082732-.5057421.8671183-.00078889.3588451.19075673.6906021.50192468.8693336.31116795.1787314.694247.1770325 1.00381742-.0044519l2.6-1.5c.3119508-.1773616.5049532-.5082732.5057421-.8671183s-.1907567-.6906021-.5019247-.8693336c-.3111679-.1787314-.694247-.1770325-1.0038174.0044519z" fill="#29190e" data-original="#000000" style=""/><path id="Shape" d="m50.285 1.134-2.6 1.5c-.3119508.17736158-.5049532.50827321-.5057421.8671183s.1907567.69060211.5019247.86933356c.3111679.17873145.694247.17703252 1.0038174-.00445186l2.6-1.5c.3119508-.17736158.5049532-.50827321.5057421-.8671183s-.1907567-.69060211-.5019247-.86933356c-.3111679-.17873145-.694247-.17703252-1.0038174.00445186z" fill="#29190e" data-original="#000000" style=""/><path id="Shape" d="m47.687 25.366 2.6 1.5c.1518701.0881308.3244113.1343718.5.134.4525881-.0000199.8487411-.3040116.9658809-.7411777.1171399-.4371661-.0739396-.8985084-.4658809-1.1248223l-2.6-1.5c-.3095704-.1814844-.6926495-.1831833-1.0038174-.0044519-.311168.1787315-.5027136.5104885-.5019247.8693336s.1937913.6897567.5057421.8671183z" fill="#29190e" data-original="#000000" style=""/><path id="Shape" d="m12.313 2.634-2.6-1.5c-.47785996-.27169029-1.08542045-.10674157-1.36027453.3693057-.27485408.47604726-.11393908 1.08468853.36027453 1.3626943l2.6 1.5c.3095704.18148438.6926495.18318331 1.0038174.00445186.311168-.17873145.5027136-.51048847.5019247-.86933356s-.1937913-.68975672-.5057421-.8671183z" fill="#29190e" data-original="#000000" style=""/></g></g></g></svg>
