<?xml version="1.0"?>
<svg xmlns="http://www.w3.org/2000/svg" xmlns:xlink="http://www.w3.org/1999/xlink" xmlns:svgjs="http://svgjs.com/svgjs" version="1.1" width="512" height="512" x="0" y="0" viewBox="0 0 461.249 461.249" style="enable-background:new 0 0 512 512" xml:space="preserve"><g>
  <g xmlns="http://www.w3.org/2000/svg">
    <path d="m458.584,79.804c-7.386-17.83-27.9-26.326-45.729-18.942-7.107,2.944-113.595,53.512-134.227,63.693-7.536-2.123-15.522-1.665-22.833,1.363-9.65,3.998-16.892,11.983-19.981,21.807l-31.02,12.849-3.543-20.024 10.386-58.693c0.386-2.184-0.214-4.427-1.639-6.126-1.426-1.699-3.529-2.681-5.747-2.681h-65.494c-4.143,0-7.5,3.358-7.5,7.5 0,6.893-5.607,12.5-12.5,12.5s-12.5-5.607-12.5-12.5c0-4.142-3.357-7.5-7.5-7.5h-65.496c-2.218,0-4.321,0.981-5.747,2.681-1.425,1.7-2.024,3.942-1.639,6.126l10.387,58.693-35.309,199.535c-2.941,16.628 0.975,32.388 11.027,44.375s24.889,18.59 41.775,18.59h130c16.887,0 31.723-6.602 41.775-18.59 10.053-11.988 13.969-27.748 11.026-44.375l-23.734-134.13 40.211-16.656c9.131,4.762 19.897,5.288 29.549,1.291 7.311-3.028 13.282-8.353 17.109-15.182 21.788-7.39 132.843-46.931 139.95-49.875 17.831-7.384 26.328-27.898 18.943-45.729zm-244.546,295.018c-7.153,8.531-17.908,13.229-30.282,13.229h-130c-12.374,0-23.128-4.698-30.282-13.228-7.153-8.531-9.905-19.939-7.749-32.124l34.443-194.649h23.71c4.143,0 7.5-3.358 7.5-7.5s-3.357-7.5-7.5-7.5h-23.71l-7.964-45h50.091c3.272,11.53 13.896,20 26.461,20s23.188-8.47 26.461-20h50.09l-7.963,45h-83.466c-4.143,0-7.5,3.358-7.5,7.5s3.357,7.5 7.5,7.5h83.466l4.322,24.427c0.004,0.022 5.354,30.256 5.354,30.256 0.003,0.019 24.767,139.965 24.767,139.965 2.157,12.185-0.595,23.593-7.749,32.124zm219.865-263.146c-4.817,1.996-129.068,46.49-141.749,50.43-2.079,0.646-3.774,2.164-4.646,4.158-2.082,4.764-5.87,8.482-10.664,10.468-6.265,2.595-13.355,1.851-18.969-1.99-2.091-1.431-4.763-1.708-7.105-0.74l-40.622,16.826-2.677-15.127 37.558-15.557c2.341-0.97 4.034-3.056 4.501-5.547 1.254-6.685 5.742-12.225 12.006-14.82 4.794-1.986 10.101-2.035 14.942-0.139 2.028,0.794 4.3,0.668 6.227-0.346 11.752-6.181 131.072-62.576 135.891-64.572 10.187-4.221 21.91,0.634 26.132,10.823 4.219,10.19-0.637,21.912-10.825,26.133z" fill="#29190e" data-original="#000000" style=""/>
    <circle cx="89.004" cy="350.05" r="7.5" fill="#29190e" data-original="#000000" style=""/>
    <circle cx="59.004" cy="320.05" r="7.5" fill="#29190e" data-original="#000000" style=""/>
  </g>
</g></svg>
