<?xml version="1.0"?>
<svg xmlns="http://www.w3.org/2000/svg" xmlns:xlink="http://www.w3.org/1999/xlink" xmlns:svgjs="http://svgjs.com/svgjs" version="1.1" width="512" height="512" x="0" y="0" viewBox="0 0 74 74" style="enable-background:new 0 0 512 512" xml:space="preserve" class=""><g><path xmlns="http://www.w3.org/2000/svg" d="M28.726,72a4.13,4.13,0,0,1-1.066-.137c-1.931-.516-3.118-2.317-4.266-4.059a9.459,9.459,0,0,0-2.489-2.925,9.558,9.558,0,0,0-3.842-.718C15,64.035,12.87,63.9,11.484,62.517S9.966,59,9.839,56.938A9.574,9.574,0,0,0,9.12,53.1a9.44,9.44,0,0,0-2.926-2.49c-1.742-1.148-3.543-2.335-4.058-4.266-.5-1.852.445-3.739,1.354-5.565A9.7,9.7,0,0,0,4.813,37,9.706,9.706,0,0,0,3.49,33.225C2.581,31.4,1.641,29.512,2.136,27.66c.515-1.931,2.317-3.118,4.058-4.266A9.439,9.439,0,0,0,9.12,20.905a9.575,9.575,0,0,0,.718-3.842c.128-2.061.259-4.192,1.645-5.579S15,9.966,17.062,9.839A9.574,9.574,0,0,0,20.9,9.12,9.46,9.46,0,0,0,23.394,6.2c1.148-1.742,2.335-3.543,4.266-4.059,1.846-.491,3.739.445,5.566,1.354A9.7,9.7,0,0,0,37,4.813,9.7,9.7,0,0,0,40.774,3.49c1.827-.909,3.72-1.845,5.566-1.354,1.931.516,3.118,2.317,4.266,4.059A9.459,9.459,0,0,0,53.1,9.12a9.558,9.558,0,0,0,3.842.718c2.061.127,4.193.259,5.579,1.645S64.034,15,64.161,17.062A9.574,9.574,0,0,0,64.88,20.9a9.44,9.44,0,0,0,2.926,2.49c1.742,1.148,3.543,2.335,4.058,4.266.495,1.852-.445,3.739-1.354,5.565A9.7,9.7,0,0,0,69.187,37a9.706,9.706,0,0,0,1.323,3.775c.909,1.826,1.849,3.713,1.354,5.565-.515,1.931-2.317,3.118-4.058,4.266A9.439,9.439,0,0,0,64.88,53.1a9.575,9.575,0,0,0-.718,3.842c-.128,2.061-.259,4.192-1.645,5.579S59,64.034,56.938,64.161a9.574,9.574,0,0,0-3.842.719,9.46,9.46,0,0,0-2.49,2.925c-1.148,1.742-2.335,3.543-4.266,4.059-1.846.492-3.739-.445-5.566-1.354A9.7,9.7,0,0,0,37,69.187a9.7,9.7,0,0,0-3.774,1.323A10.725,10.725,0,0,1,28.726,72Zm0-68a2.132,2.132,0,0,0-.553.068c-1.2.32-2.17,1.8-3.114,3.227a10.676,10.676,0,0,1-3.156,3.556,10.837,10.837,0,0,1-4.72.984c-1.768.109-3.437.212-4.289,1.063s-.954,2.521-1.063,4.289a10.836,10.836,0,0,1-.983,4.72A10.686,10.686,0,0,1,7.3,25.063c-1.43.943-2.907,1.917-3.228,3.113-.3,1.121.436,2.6,1.213,4.157A11,11,0,0,1,6.813,37,11,11,0,0,1,5.28,41.667C4.5,43.229,3.769,44.7,4.067,45.824c.321,1.2,1.8,2.17,3.228,3.113a10.69,10.69,0,0,1,3.556,3.157,10.837,10.837,0,0,1,.984,4.72c.109,1.768.212,3.437,1.063,4.289s2.521.954,4.289,1.063a10.822,10.822,0,0,1,4.72.983,10.686,10.686,0,0,1,3.156,3.556c.943,1.429,1.917,2.907,3.113,3.227,1.121.3,2.6-.434,4.158-1.212A10.993,10.993,0,0,1,37,67.187a10.993,10.993,0,0,1,4.666,1.533c1.562.778,3.039,1.512,4.158,1.212,1.2-.32,2.17-1.8,3.114-3.227a10.676,10.676,0,0,1,3.156-3.556,10.837,10.837,0,0,1,4.72-.984c1.768-.109,3.437-.212,4.289-1.063s.954-2.521,1.063-4.289a10.836,10.836,0,0,1,.983-4.72,10.686,10.686,0,0,1,3.556-3.156c1.43-.943,2.907-1.917,3.228-3.113.3-1.121-.436-2.6-1.213-4.157A11,11,0,0,1,67.187,37a11,11,0,0,1,1.533-4.667c.777-1.562,1.511-3.036,1.213-4.157-.321-1.2-1.8-2.17-3.228-3.113a10.69,10.69,0,0,1-3.556-3.157,10.837,10.837,0,0,1-.984-4.72c-.109-1.768-.212-3.437-1.063-4.289s-2.521-.954-4.289-1.063a10.822,10.822,0,0,1-4.72-.983A10.686,10.686,0,0,1,48.937,7.3c-.943-1.429-1.917-2.907-3.113-3.227-1.12-.3-2.595.434-4.158,1.212A10.993,10.993,0,0,1,37,6.813,10.993,10.993,0,0,1,32.334,5.28,9.35,9.35,0,0,0,28.729,4Z" fill="#29190e" data-original="#000000" style=""/><path xmlns="http://www.w3.org/2000/svg" d="M44.972,51.031a5.77,5.77,0,1,1,4.294-9.62h0a5.767,5.767,0,0,1-4.294,9.62Zm0-9.537a3.769,3.769,0,1,0,2.809,1.252A3.753,3.753,0,0,0,44.968,41.494Z" fill="#29190e" data-original="#000000" style=""/><path xmlns="http://www.w3.org/2000/svg" d="M29.033,34.505a5.77,5.77,0,1,1,4.294-9.62h0a5.767,5.767,0,0,1-4.294,9.62Zm0-9.537a3.769,3.769,0,1,0,2.81,1.252h0A3.767,3.767,0,0,0,29.029,24.968Z" fill="#29190e" data-original="#000000" style=""/><path xmlns="http://www.w3.org/2000/svg" d="M23.673,50.984a1,1,0,0,1-.7-1.716L49.629,23.3a1,1,0,0,1,1.4,1.433L24.371,50.7A1,1,0,0,1,23.673,50.984Z" fill="#29190e" data-original="#000000" style=""/></g></svg>
