<?xml version="1.0"?>
<svg xmlns="http://www.w3.org/2000/svg" xmlns:xlink="http://www.w3.org/1999/xlink" xmlns:svgjs="http://svgjs.com/svgjs" version="1.1" width="512" height="512" x="0" y="0" viewBox="0 0 60 60" style="enable-background:new 0 0 512 512" xml:space="preserve"><g><g xmlns="http://www.w3.org/2000/svg" id="Page-1" fill="none" fill-rule="evenodd"><g id="006---Espresso-Machine" fill="rgb(0,0,0)" fill-rule="nonzero"><path id="Shape" d="m3 13.858v35.142h-1c-1.1045695 0-2 .8954305-2 2v4c.00330612 2.7600532 2.23994685 4.9966939 5 5h50c2.7600532-.0033061 4.9966939-2.2399468 5-5v-4c0-1.1045695-.8954305-2-2-2h-1v-14c0-.5522847-.4477153-1-1-1s-1 .4477153-1 1v14h-16.111c.5953267-.5842577 1.0822131-1.2695554 1.438-2.024 2.466-.12 4.441-.918 5.47-2.248.7605641-.989619.998039-2.2849371.638-3.48-.3491874-1.3154162-1.5340829-2.2355009-2.895-2.248h-2.54v-1c0-1.1045695-.8954305-2-2-2h-18c-1.1045695 0-2 .8954305-2 2v6c-.0004407 1.883359.7609752 3.6868075 2.111 5h-16.111v-35h3v7c-.0041656 1.6239029.64146639 3.1819897 1.793 4.327.7109777.7143773 1.1326858 1.6664261 1.184 2.673h-.151c-1.55397392-.0068103-2.85322091 1.1797802-2.987 2.728l-.637 7c-.0764331.83954.20389196 1.672498.7723633 2.2950007.56847135.6225028 1.37262463.9770994 2.2156367.9769993h3.62c.8433601.0006624 1.6480489-.3536899 2.2169626-.9762603.5689137-.6225705.8495023-1.4558529.7730374-2.2957397l-.637-7c-.1338406-1.548989-1.4342593-2.7358549-2.989-2.728h-.186c-.0536733-1.538945-.6903367-2.9999462-1.781-4.087-.7751215-.770904-1.20972861-1.8197942-1.207-2.913v-7h1.91c1.5165382-.0058974 2.904219.85185 3.577 2.211l2.237 4.472c.6780854 1.3591612 1.8500639 2.407717 3.276 2.931v5.386c0 2.209139 1.790861 4 4 4v1c0 .5522847.4477153 1 1 1s1-.4477153 1-1v-1h6v1c0 .5522847.4477153 1 1 1s1-.4477153 1-1v-1c1.4225979-.0044956 2.7350239-.7666478 3.444-2h5.336c.5642399.6337052 1.3715062.9973386 2.22 1h11c1.6568542 0 3-1.3431458 3-3v-3c0-1.6568542-1.3431458-3-3-3h-11c-.8484938.0026614-1.6557601.3662948-2.22 1h-4.78v-.386c1.4259361-.523283 2.5979146-1.5718388 3.276-2.931l2.237-4.472c.672781-1.35915 2.0604618-2.2168974 3.577-2.211h6.91v6c0 .5522847.4477153 1 1 1s1-.4477153 1-1v-6.142c1.7606851-.4545933 2.9931852-2.0395884 3-3.858v-6c0-2.209139-1.790861-4-4-4h-52c-2.209139 0-4 1.790861-4 4v6c.00681482 1.8184116 1.23931486 3.4034067 3 3.858zm40.54 27.142c.4543205.0145353.845516.3248919.963.764.1965552.5920248.0888274 1.2428799-.288 1.74-.8737907.8738169-2.0478505 1.3816344-3.283 1.42.042937-.3061721.0656529-.6148408.068-.924v-3zm-22.54 3v-6h18v6c-.0033061 2.7600532-2.2399468 4.9966939-5 5h-8c-2.7600532-.0033061-4.9966939-2.2399468-5-5zm5 7h32v2h-5c-.5522847 0-1 .4477153-1 1s.4477153 1 1 1h5c0 1.6568542-1.3431458 3-3 3h-50c-1.65685425 0-3-1.3431458-3-3h5c.55228475 0 1-.4477153 1-1s-.44771525-1-1-1h-5v-2zm-11.831-20.09.637 7c.0256431.2805963-.0682806.5589901-.2586679.7667026-.1903873.2077126-.4595689.3254667-.7413321.3242974h-3.616c-.28157255.0011429-.55057918-.116476-.74093244-.3239611-.19035326-.207485-.28441162-.4856069-.25906756-.7660389l.637-7c.04670298-.5168638.4810348-.9121057 1-.91h2.348c.5163145.0009557.9470162.3948267.994.909zm31.831-5.91h11c.5522847 0 1 .4477153 1 1v3c0 .5522847-.4477153 1-1 1h-11c-.5522847 0-1-.4477153-1-1v-3c0-.5522847.4477153-1 1-1zm-3 1v3h-4v-3zm-6-2v5c0 1.1045695-.8954305 2-2 2h-10c-1.1045695 0-2-.8954305-2-2v-5zm-35-20c0-1.1045695.8954305-2 2-2h52c1.1045695 0 2 .8954305 2 2v6c0 1.1045695-.8954305 2-2 2h-7.91c-2.2747637-.0077534-4.3559757 1.2787505-5.366 3.317l-2.237 4.472c-.672781 1.35915-2.0604618 2.2168974-3.577 2.211h-13.82c-1.5165382.0058974-2.904219-.85185-3.577-2.211l-2.237-4.472c-1.0100243-2.0382495-3.0912363-3.3247534-5.366-3.317h-7.91c-1.1045695 0-2-.8954305-2-2z" fill="#29190e" data-original="#000000" style=""/><path id="Shape" d="m30 19c3.8659932 0 7-3.1340068 7-7 0-3.86599325-3.1340068-7-7-7s-7 3.13400675-7 7c.0044086 3.8641657 3.1358343 6.9955914 7 7zm0-12c2.7614237 0 5 2.23857625 5 5 0 2.7614237-2.2385763 5-5 5s-5-2.2385763-5-5c.0033061-2.76005315 2.2399468-4.99669388 5-5z" fill="#29190e" data-original="#000000" style=""/><path id="Shape" d="m26 45c-.5522847 0-1-.4477153-1-1s-.4477153-1-1-1-1 .4477153-1 1c0 1.6568542 1.3431458 3 3 3 .5522847 0 1-.4477153 1-1s-.4477153-1-1-1z" fill="#29190e" data-original="#000000" style=""/><path id="Shape" d="m30 13c.5522847 0 1-.4477153 1-1v-2c0-.55228475-.4477153-1-1-1s-1 .44771525-1 1v2c0 .5522847.4477153 1 1 1z" fill="#29190e" data-original="#000000" style=""/><path id="Shape" d="m8 10c1.65685425 0 3-1.34314575 3-3s-1.34314575-3-3-3-3 1.34314575-3 3 1.34314575 3 3 3zm0-4c.55228475 0 1 .44771525 1 1s-.44771525 1-1 1-1-.44771525-1-1 .44771525-1 1-1z" fill="#29190e" data-original="#000000" style=""/><path id="Shape" d="m16 10c1.6568542 0 3-1.34314575 3-3s-1.3431458-3-3-3-3 1.34314575-3 3 1.3431458 3 3 3zm0-4c.5522847 0 1 .44771525 1 1s-.4477153 1-1 1-1-.44771525-1-1 .4477153-1 1-1z" fill="#29190e" data-original="#000000" style=""/><path id="Shape" d="m44 10c1.6568542 0 3-1.34314575 3-3s-1.3431458-3-3-3-3 1.34314575-3 3 1.3431458 3 3 3zm0-4c.5522847 0 1 .44771525 1 1s-.4477153 1-1 1-1-.44771525-1-1 .4477153-1 1-1z" fill="#29190e" data-original="#000000" style=""/><path id="Shape" d="m52 10c1.6568542 0 3-1.34314575 3-3s-1.3431458-3-3-3-3 1.34314575-3 3 1.3431458 3 3 3zm0-4c.5522847 0 1 .44771525 1 1s-.4477153 1-1 1-1-.44771525-1-1 .4477153-1 1-1z" fill="#29190e" data-original="#000000" style=""/></g></g></g></svg>
